<svg xmlns="http://www.w3.org/2000/svg" width="1920" height="220" viewBox="0 0 1920 220" role="img"><defs><linearGradient id="bgH" gradientUnits="userSpaceOnUse" x1="0" y1="0" x2="1920" y2="220"><stop offset="0" stop-color="#102A4C"/><stop offset="0.62" stop-color="#102A4C"/><stop offset="1" stop-color="#10B981"/></linearGradient></defs><rect width="1920" height="220" fill="url(#bgH)"/><g transform="translate(1693.16,-72.37) scale(5.5263)" opacity=".12"><path d="M32,48 C23,46 14,42 10,35 C19,34 29,41 32,48 Z" fill="#fff"/><path d="M32,48 C41,46 50,42 54,35 C45,34 35,41 32,48 Z" fill="#fff"/><path d="M32,48 C25,42 19,32 18,23 C27,27 31,39 32,48 Z" fill="#fff"/><path d="M32,48 C39,42 45,32 46,23 C37,27 33,39 32,48 Z" fill="#fff"/><path d="M32,48 C28,38 28,22 32,14 C36,22 36,38 32,48 Z" fill="#fff"/></g><g transform="translate(25.26,35.05) scale(2.2105)" ><path d="M32,48 C23,46 14,42 10,35 C19,34 29,41 32,48 Z" fill="#fff" opacity=".4"/><path d="M32,48 C41,46 50,42 54,35 C45,34 35,41 32,48 Z" fill="#fff" opacity=".4"/><path d="M32,48 C25,42 19,32 18,23 C27,27 31,39 32,48 Z" fill="#fff" opacity=".85"/><path d="M32,48 C39,42 45,32 46,23 C37,27 33,39 32,48 Z" fill="#fff" opacity=".85"/><path d="M32,48 C28,38 28,22 32,14 C36,22 36,38 32,48 Z" fill="#fff"/></g><text x="170" y="98" font-family="Manrope, system-ui, sans-serif" font-size="50" font-weight="600" letter-spacing="-1" fill="#fff">goyande</text><text x="170" y="156" font-family="Manrope, system-ui, sans-serif" font-size="40" font-weight="500" letter-spacing="-0.5" fill="#fff" opacity="0.9">Automation = <tspan font-weight="800" opacity="1">valuation</tspan></text><text x="1180" y="98" text-anchor="end" font-family="Manrope, system-ui, sans-serif" font-size="26" letter-spacing="1.5" fill="#fff" opacity="0.92" font-weight="500">goyande<tspan font-weight="700" opacity="1">.ai</tspan></text></svg>
