<svg xmlns="http://www.w3.org/2000/svg" width="1920" height="110" viewBox="0 0 1920 110" role="img"><rect width="1920" height="110" fill="#102A4C"/><g transform="translate(37.37,25.47) scale(0.8947)" ><path d="M32,48 C23,46 14,42 10,35 C19,34 29,41 32,48 Z" fill="#fff" opacity=".4"/><path d="M32,48 C41,46 50,42 54,35 C45,34 35,41 32,48 Z" fill="#fff" opacity=".4"/><path d="M32,48 C25,42 19,32 18,23 C27,27 31,39 32,48 Z" fill="#fff" opacity=".85"/><path d="M32,48 C39,42 45,32 46,23 C37,27 33,39 32,48 Z" fill="#fff" opacity=".85"/><path d="M32,48 C28,38 28,22 32,14 C36,22 36,38 32,48 Z" fill="#fff"/></g><text x="104" y="64" font-family="Manrope, system-ui, sans-serif" font-size="26" font-weight="600" letter-spacing="-0.6" fill="#fff">goyande</text><text x="1830" y="63" text-anchor="end" font-family="Manrope, system-ui, sans-serif" font-size="19" font-weight="600" letter-spacing="4" fill="#fff">GO BEYOND AUTOMATION</text></svg>
