<svg xmlns="http://www.w3.org/2000/svg" width="1128" height="191" viewBox="0 0 1128 191" role="img"><defs><linearGradient id="bg" gradientUnits="userSpaceOnUse" x1="0" y1="0" x2="1128" y2="191"><stop offset="0" stop-color="#10B981"/><stop offset="0.68" stop-color="#102A4C"/><stop offset="1" stop-color="#102A4C"/></linearGradient></defs><rect width="1128" height="191" fill="url(#bg)"/><g transform="translate(806.32,-103.74) scale(6.0526)" opacity=".12"><path d="M32,48 C23,46 14,42 10,35 C19,34 29,41 32,48 Z" fill="#fff"/><path d="M32,48 C41,46 50,42 54,35 C45,34 35,41 32,48 Z" fill="#fff"/><path d="M32,48 C25,42 19,32 18,23 C27,27 31,39 32,48 Z" fill="#fff"/><path d="M32,48 C39,42 45,32 46,23 C37,27 33,39 32,48 Z" fill="#fff"/><path d="M32,48 C28,38 28,22 32,14 C36,22 36,38 32,48 Z" fill="#fff"/></g><g transform="translate(51.37,14.47) scale(0.8947)" ><path d="M32,48 C23,46 14,42 10,35 C19,34 29,41 32,48 Z" fill="#fff" opacity=".4"/><path d="M32,48 C41,46 50,42 54,35 C45,34 35,41 32,48 Z" fill="#fff" opacity=".4"/><path d="M32,48 C25,42 19,32 18,23 C27,27 31,39 32,48 Z" fill="#fff" opacity=".85"/><path d="M32,48 C39,42 45,32 46,23 C37,27 33,39 32,48 Z" fill="#fff" opacity=".85"/><path d="M32,48 C28,38 28,22 32,14 C36,22 36,38 32,48 Z" fill="#fff"/></g><text x="111" y="53" font-family="Manrope, system-ui, sans-serif" font-size="26" font-weight="600" letter-spacing="-0.6" fill="#fff">goyande</text><text x="62" y="110" font-family="Manrope, system-ui, sans-serif" font-size="47" font-weight="800" letter-spacing="-1.2" fill="#fff">Better results. <tspan font-weight="600" opacity="0.6">Less time.</tspan></text></svg>
