<svg xmlns="http://www.w3.org/2000/svg" width="1080" height="1080" viewBox="0 0 1080 1080" role="img"><rect width="1080" height="1080" fill="#102A4C"/><g transform="translate(626.32,625.26) scale(11.0526)" opacity=".05"><path d="M32,48 C23,46 14,42 10,35 C19,34 29,41 32,48 Z" fill="#fff"/><path d="M32,48 C41,46 50,42 54,35 C45,34 35,41 32,48 Z" fill="#fff"/><path d="M32,48 C25,42 19,32 18,23 C27,27 31,39 32,48 Z" fill="#fff"/><path d="M32,48 C39,42 45,32 46,23 C37,27 33,39 32,48 Z" fill="#fff"/><path d="M32,48 C28,38 28,22 32,14 C36,22 36,38 32,48 Z" fill="#fff"/></g><g transform="translate(70.95,61.79) scale(1.1579)" ><path d="M32,48 C23,46 14,42 10,35 C19,34 29,41 32,48 Z" fill="#fff" opacity=".4"/><path d="M32,48 C41,46 50,42 54,35 C45,34 35,41 32,48 Z" fill="#fff" opacity=".4"/><path d="M32,48 C25,42 19,32 18,23 C27,27 31,39 32,48 Z" fill="#fff" opacity=".85"/><path d="M32,48 C39,42 45,32 46,23 C37,27 33,39 32,48 Z" fill="#fff" opacity=".85"/><path d="M32,48 C28,38 28,22 32,14 C36,22 36,38 32,48 Z" fill="#fff"/></g><text x="156" y="111" font-family="Manrope, system-ui, sans-serif" font-size="30" font-weight="600" letter-spacing="-0.6" fill="#fff">goyande</text><text x="84" y="464" font-family="Manrope, system-ui, sans-serif" font-size="84" font-weight="800" letter-spacing="-2" fill="#fff">Deeper competitor</text><text x="84" y="560" font-family="Manrope, system-ui, sans-serif" font-size="84" font-weight="800" letter-spacing="-2" fill="#fff">insight.</text><text x="84" y="656" font-family="Manrope, system-ui, sans-serif" font-size="84" font-weight="800" letter-spacing="-2" fill="#10B981">Less time.</text></svg>
