<svg xmlns="http://www.w3.org/2000/svg" viewBox="0 0 64 64" width="64" height="64" role="img" aria-label="Goyande lotus mark, reversed for dark backgrounds">
  <title>Goyande mark (reversed)</title>
  <path d="M32,48 C23,46 14,42 10,35 C19,34 29,41 32,48 Z" fill="#FFFFFF" opacity="0.45"/>
  <path d="M32,48 C41,46 50,42 54,35 C45,34 35,41 32,48 Z" fill="#FFFFFF" opacity="0.45"/>
  <path d="M32,48 C25,42 19,32 18,23 C27,27 31,39 32,48 Z" fill="#FFFFFF"/>
  <path d="M32,48 C39,42 45,32 46,23 C37,27 33,39 32,48 Z" fill="#FFFFFF"/>
  <path d="M32,48 C28,38 28,22 32,14 C36,22 36,38 32,48 Z" fill="#10B981"/>
</svg>
