<svg xmlns="http://www.w3.org/2000/svg" width="1080" height="1080" viewBox="0 0 1080 1080" role="img"><defs><linearGradient id="bg" gradientUnits="userSpaceOnUse" x1="0" y1="0" x2="1080" y2="1080"><stop offset="0" stop-color="#10B981"/><stop offset="0.68" stop-color="#102A4C"/><stop offset="1" stop-color="#102A4C"/></linearGradient></defs><rect width="1080" height="1080" fill="url(#bg)"/><g transform="translate(72.63,55.53) scale(1.1053)" ><path d="M32,48 C23,46 14,42 10,35 C19,34 29,41 32,48 Z" fill="#fff" opacity=".4"/><path d="M32,48 C41,46 50,42 54,35 C45,34 35,41 32,48 Z" fill="#fff" opacity=".4"/><path d="M32,48 C25,42 19,32 18,23 C27,27 31,39 32,48 Z" fill="#fff" opacity=".85"/><path d="M32,48 C39,42 45,32 46,23 C37,27 33,39 32,48 Z" fill="#fff" opacity=".85"/><path d="M32,48 C28,38 28,22 32,14 C36,22 36,38 32,48 Z" fill="#fff"/></g><text x="150" y="102" font-family="Manrope, system-ui, sans-serif" font-size="30" font-weight="600" letter-spacing="-0.6" fill="#fff">goyande</text><text x="540" y="548" text-anchor="middle" font-family="Manrope, system-ui, sans-serif" font-size="98" font-weight="800" letter-spacing="-2.5" fill="#fff">Better results.</text><text x="540" y="664" text-anchor="middle" font-family="Manrope, system-ui, sans-serif" font-size="98" font-weight="600" letter-spacing="-2.5" fill="#fff" opacity="0.62">Less time.</text></svg>
